<svg width="0" height="0" class="hidden">
  <symbol xmlns="http://www.w3.org/2000/svg" viewBox="0 0 24 24" id="search">
    <path d="M23.809 21.646l-6.205-6.205c1.167-1.605 1.857-3.579 1.857-5.711 0-5.365-4.365-9.73-9.731-9.73-5.365 0-9.73 4.365-9.73 9.73 0 5.366 4.365 9.73 9.73 9.73 2.034 0 3.923-.627 5.487-1.698l6.238 6.238 2.354-2.354zm-20.955-11.916c0-3.792 3.085-6.877 6.877-6.877s6.877 3.085 6.877 6.877-3.085 6.877-6.877 6.877c-3.793 0-6.877-3.085-6.877-6.877z"></path>
  </symbol>
  <symbol xmlns="http://www.w3.org/2000/svg" viewBox="0 0 24 24" id="user-circle">
    <path d="M12 0c-6.627 0-12 5.373-12 12s5.373 12 12 12 12-5.373 12-12-5.373-12-12-12zm7.753 18.305c-.261-.586-.789-.991-1.871-1.241-2.293-.529-4.428-.993-3.393-2.945 3.145-5.942.833-9.119-2.489-9.119-3.388 0-5.644 3.299-2.489 9.119 1.066 1.964-1.148 2.427-3.393 2.945-1.084.25-1.608.658-1.867 1.246-1.405-1.723-2.251-3.919-2.251-6.31 0-5.514 4.486-10 10-10s10 4.486 10 10c0 2.389-.845 4.583-2.247 6.305z"></path>
  </symbol>
</svg>