<svg width="0" height="0" class="hidden">
  <symbol version="1.1" id="save" xmlns="http://www.w3.org/2000/svg" xmlns:xlink="http://www.w3.org/1999/xlink" x="0px" y="0px" xml:space="preserve" viewBox="0 0 440 440">
    <g>
      <path d="M420,78.072V60c0-16.5-13.5-30-30-30H240v40h150C400.925,70,411.167,72.949,420,78.072z"></path>
      <path d="M340.57,211.141c29.914,0,57.487,10.205,79.43,27.311V130c0-16.5-13.5-30-30-30H210V30c0-16.5-13.5-30-30-30H30
		C13.5,0,0,13.5,0,30v310.57h211.141C211.141,269.202,269.202,211.141,340.57,211.141z"></path>
      <path d="M340.57,241.141c-54.825,0-99.43,44.604-99.43,99.43S285.745,440,340.57,440c54.826,0,99.43-44.604,99.43-99.43
		S395.396,241.141,340.57,241.141z M402.071,355.57h-46.5v46.5h-30v-46.5h-46.5v-30h46.5v-46.5h30v46.5h46.5V355.57z"></path>
    </g>
    <g></g>
    <g></g>
    <g></g>
    <g></g>
    <g></g>
    <g></g>
    <g></g>
    <g></g>
    <g></g>
    <g></g>
    <g></g>
    <g></g>
    <g></g>
    <g></g>
    <g></g>
  </symbol>
  <symbol xmlns="http://www.w3.org/2000/svg" viewBox="0 0 24 24" id="search">
    <path d="M23.809 21.646l-6.205-6.205c1.167-1.605 1.857-3.579 1.857-5.711 0-5.365-4.365-9.73-9.731-9.73-5.365 0-9.73 4.365-9.73 9.73 0 5.366 4.365 9.73 9.73 9.73 2.034 0 3.923-.627 5.487-1.698l6.238 6.238 2.354-2.354zm-20.955-11.916c0-3.792 3.085-6.877 6.877-6.877s6.877 3.085 6.877 6.877-3.085 6.877-6.877 6.877c-3.793 0-6.877-3.085-6.877-6.877z"></path>
  </symbol>
  <symbol xmlns="http://www.w3.org/2000/svg" viewBox="0 0 24 24" id="user-circle">
    <path d="M12 0c-6.627 0-12 5.373-12 12s5.373 12 12 12 12-5.373 12-12-5.373-12-12-12zm7.753 18.305c-.261-.586-.789-.991-1.871-1.241-2.293-.529-4.428-.993-3.393-2.945 3.145-5.942.833-9.119-2.489-9.119-3.388 0-5.644 3.299-2.489 9.119 1.066 1.964-1.148 2.427-3.393 2.945-1.084.25-1.608.658-1.867 1.246-1.405-1.723-2.251-3.919-2.251-6.31 0-5.514 4.486-10 10-10s10 4.486 10 10c0 2.389-.845 4.583-2.247 6.305z"></path>
  </symbol>
</svg>