<svg width="0" height="0" class="hidden">
  <symbol xmlns="http://www.w3.org/2000/svg" viewBox="0 0 24 24" id="arrow-left">
    <g>
      <path d="M0 0h24v24H0z" fill="none"></path>
      <path d="M7.828 11H20v2H7.828l5.364 5.364-1.414 1.414L4 12l7.778-7.778 1.414 1.414z"></path>
    </g>
  </symbol>
  <symbol xmlns="http://www.w3.org/2000/svg" viewBox="0 0 24 24" id="arrow-right">
    <g>
      <path d="M0 0h24v24H0z" fill="none"></path>
      <path d="M16.172 11l-5.364-5.364 1.414-1.414L20 12l-7.778 7.778-1.414-1.414L16.172 13H4v-2z"></path>
    </g>
  </symbol>
  <symbol fill="#FFF" xmlns="http://www.w3.org/2000/svg" viewBox="0 0 50 50" id="bookmark">
    <path d="M 37 48 C 36.824219 48 36.652344 47.953125 36.496094 47.863281 L 25 41.15625 L 13.503906 47.863281 C 13.195313 48.042969 12.8125 48.046875 12.503906 47.867188 C 12.191406 47.6875 12 47.359375 12 47 L 12 3 C 12 2.449219 12.449219 2 13 2 L 37 2 C 37.554688 2 38 2.449219 38 3 L 38 47 C 38 47.359375 37.808594 47.6875 37.496094 47.867188 C 37.34375 47.957031 37.171875 48 37 48 Z"></path>
  </symbol>
  <symbol xmlns="http://www.w3.org/2000/svg" viewBox="0 0 24 24" id="checked">
    <path d="M12 0c-6.627 0-12 5.373-12 12s5.373 12 12 12 12-5.373 12-12-5.373-12-12-12zm-1.25 17.292l-4.5-4.364 1.857-1.858 2.643 2.506 5.643-5.784 1.857 1.857-7.5 7.643z"></path>
  </symbol>
  <symbol id="close" version="1.1" xml:space="preserve" xmlns="http://www.w3.org/2000/svg" xmlns:xlink="http://www.w3.org/1999/xlink" viewBox="0 0 512 512">
    <path d="M443.6,387.1L312.4,255.4l131.5-130c5.4-5.4,5.4-14.2,0-19.6l-37.4-37.6c-2.6-2.6-6.1-4-9.8-4c-3.7,0-7.2,1.5-9.8,4  L256,197.8L124.9,68.3c-2.6-2.6-6.1-4-9.8-4c-3.7,0-7.2,1.5-9.8,4L68,105.9c-5.4,5.4-5.4,14.2,0,19.6l131.5,130L68.4,387.1  c-2.6,2.6-4.1,6.1-4.1,9.8c0,3.7,1.4,7.2,4.1,9.8l37.4,37.6c2.7,2.7,6.2,4.1,9.8,4.1c3.5,0,7.1-1.3,9.8-4.1L256,313.1l130.7,131.1  c2.7,2.7,6.2,4.1,9.8,4.1c3.5,0,7.1-1.3,9.8-4.1l37.4-37.6c2.6-2.6,4.1-6.1,4.1-9.8C447.7,393.2,446.2,389.7,443.6,387.1z"></path>
  </symbol>
  <symbol xmlns="http://www.w3.org/2000/svg" viewBox="0 0 24 24" id="error">
    <path d="M16.143 2l5.857 5.858v8.284l-5.857 5.858h-8.286l-5.857-5.858v-8.284l5.857-5.858h8.286zm.828-2h-9.942l-7.029 7.029v9.941l7.029 7.03h9.941l7.03-7.029v-9.942l-7.029-7.029zm-6.471 6h3l-1 8h-1l-1-8zm1.5 12.25c-.69 0-1.25-.56-1.25-1.25s.56-1.25 1.25-1.25 1.25.56 1.25 1.25-.56 1.25-1.25 1.25z"></path>
  </symbol>
  <symbol fill="none" stroke="currentColor" stroke-linecap="round" stroke-linejoin="round" stroke-width="2" xmlns="http://www.w3.org/2000/svg" viewBox="0 0 24 24" id="external">
    <path d="M18 13v6a2 2 0 0 1-2 2H5a2 2 0 0 1-2-2V8a2 2 0 0 1 2-2h6"></path>
    <polyline points="15 3 21 3 21 9"></polyline>
    <line x1="10" x2="21" y1="14" y2="3"></line>
  </symbol>
  <symbol preserveAspectRatio="xMidYMid meet" xmlns="http://www.w3.org/2000/svg" viewBox="0 0 50 50" id="logout">
    <g transform="matrix(.1 0 0 -.1 0 50)">
      <path d="m200 435c-34-35-41-48-32-57s17-6 36 12l25 23 3-99c2-80 6-99 18-99s16 19 18 99l3 99 25-23c19-18 27-21 36-12s2 22-32 57c-24 25-47 45-50 45s-26-20-50-45z"></path>
      <path d="m82 408c-33-36-62-109-62-158 0-50 29-122 63-158 83-89 251-89 334 0 34 36 63 108 63 158 0 74-68 195-99 175-16-9-13-31 6-46 24-21 53-89 53-129 0-19-9-53-19-75-70-151-272-151-342 0-31 68-18 148 33 202 11 12 18 29 15 37-9 22-20 20-45-6z"></path>
    </g>
  </symbol>
  <symbol version="1.1" id="save" xmlns="http://www.w3.org/2000/svg" xmlns:xlink="http://www.w3.org/1999/xlink" x="0px" y="0px" xml:space="preserve" viewBox="0 0 440 440">
    <g>
      <path d="M420,78.072V60c0-16.5-13.5-30-30-30H240v40h150C400.925,70,411.167,72.949,420,78.072z"></path>
      <path d="M340.57,211.141c29.914,0,57.487,10.205,79.43,27.311V130c0-16.5-13.5-30-30-30H210V30c0-16.5-13.5-30-30-30H30
		C13.5,0,0,13.5,0,30v310.57h211.141C211.141,269.202,269.202,211.141,340.57,211.141z"></path>
      <path d="M340.57,241.141c-54.825,0-99.43,44.604-99.43,99.43S285.745,440,340.57,440c54.826,0,99.43-44.604,99.43-99.43
		S395.396,241.141,340.57,241.141z M402.071,355.57h-46.5v46.5h-30v-46.5h-46.5v-30h46.5v-46.5h30v46.5h46.5V355.57z"></path>
    </g>
    <g></g>
    <g></g>
    <g></g>
    <g></g>
    <g></g>
    <g></g>
    <g></g>
    <g></g>
    <g></g>
    <g></g>
    <g></g>
    <g></g>
    <g></g>
    <g></g>
    <g></g>
  </symbol>
  <symbol fill="#FFF" xmlns="http://www.w3.org/2000/svg" viewBox="0 0 50 50" id="search">
    <path d="M 21 3 C 11.601563 3 4 10.601563 4 20 C 4 29.398438 11.601563 37 21 37 C 24.355469 37 27.460938 36.015625 30.09375 34.34375 L 42.375 46.625 L 46.625 42.375 L 34.5 30.28125 C 36.679688 27.421875 38 23.878906 38 20 C 38 10.601563 30.398438 3 21 3 Z M 21 7 C 28.199219 7 34 12.800781 34 20 C 34 27.199219 28.199219 33 21 33 C 13.800781 33 8 27.199219 8 20 C 8 12.800781 13.800781 7 21 7 Z"></path>
  </symbol>
  <symbol xmlns="http://www.w3.org/2000/svg" viewBox="0 0 24 24" id="star-empty">
    <g>
      <path d="M0 0h24v24H0z" fill="none"></path>
      <path d="M12 18.26l-7.053 3.948 1.575-7.928L.587 8.792l8.027-.952L12 .5l3.386 7.34 8.027.952-5.935 5.488 1.575 7.928L12 18.26zm0-2.292l4.247 2.377-.949-4.773 3.573-3.305-4.833-.573L12 5.275l-2.038 4.42-4.833.572 3.573 3.305-.949 4.773L12 15.968z"></path>
    </g>
  </symbol>
  <symbol xmlns="http://www.w3.org/2000/svg" viewBox="0 0 24 24" id="star-fill">
    <g>
      <path d="M0 0h24v24H0z" fill="none"></path>
      <path d="M12 18.26l-7.053 3.948 1.575-7.928L.587 8.792l8.027-.952L12 .5l3.386 7.34 8.027.952-5.935 5.488 1.575 7.928z"></path>
    </g>
  </symbol>
  <symbol xmlns="http://www.w3.org/2000/svg" viewBox="0 0 24 24" id="star-half">
    <g>
      <path d="M0 0h24v24H0z" fill="none"></path>
      <path d="M12 15.968l4.247 2.377-.949-4.773 3.573-3.305-4.833-.573L12 5.275v10.693zm0 2.292l-7.053 3.948 1.575-7.928L.587 8.792l8.027-.952L12 .5l3.386 7.34 8.027.952-5.935 5.488 1.575 7.928L12 18.26z"></path>
    </g>
  </symbol>
  <symbol xmlns="http://www.w3.org/2000/svg" viewBox="0 0 24 24" id="success">
    <path d="M12 2c5.514 0 10 4.486 10 10s-4.486 10-10 10-10-4.486-10-10 4.486-10 10-10zm0-2c-6.627 0-12 5.373-12 12s5.373 12 12 12 12-5.373 12-12-5.373-12-12-12zm6.25 8.891l-1.421-1.409-6.105 6.218-3.078-2.937-1.396 1.436 4.5 4.319 7.5-7.627z"></path>
  </symbol>
  <symbol xmlns="http://www.w3.org/2000/svg" viewBox="0 0 24 24" id="user-circle">
    <path d="M12 0c-6.627 0-12 5.373-12 12s5.373 12 12 12 12-5.373 12-12-5.373-12-12-12zm7.753 18.305c-.261-.586-.789-.991-1.871-1.241-2.293-.529-4.428-.993-3.393-2.945 3.145-5.942.833-9.119-2.489-9.119-3.388 0-5.644 3.299-2.489 9.119 1.066 1.964-1.148 2.427-3.393 2.945-1.084.25-1.608.658-1.867 1.246-1.405-1.723-2.251-3.919-2.251-6.31 0-5.514 4.486-10 10-10s10 4.486 10 10c0 2.389-.845 4.583-2.247 6.305z"></path>
  </symbol>
</svg>