<svg width="0" height="0" class="hidden">
  <symbol xmlns="http://www.w3.org/2000/svg" viewBox="0 0 24 24" id="arrow-left">
    <g>
      <path d="M0 0h24v24H0z" fill="none"></path>
      <path d="M7.828 11H20v2H7.828l5.364 5.364-1.414 1.414L4 12l7.778-7.778 1.414 1.414z"></path>
    </g>
  </symbol>
  <symbol xmlns="http://www.w3.org/2000/svg" viewBox="0 0 24 24" id="arrow-right">
    <g>
      <path d="M0 0h24v24H0z" fill="none"></path>
      <path d="M16.172 11l-5.364-5.364 1.414-1.414L20 12l-7.778 7.778-1.414-1.414L16.172 13H4v-2z"></path>
    </g>
  </symbol>
  <symbol xmlns="http://www.w3.org/2000/svg" viewBox="0 0 48 48" id="bookmark">
    <path d="M34 6H14c-2.21 0-3.98 1.79-3.98 4L10 42l14-6 14 6V10c0-2.21-1.79-4-4-4z"></path>
    <path d="M0 0h48v48H0z" fill="none"></path>
  </symbol>
  <symbol xmlns="http://www.w3.org/2000/svg" viewBox="0 0 24 24" id="checked">
    <path d="M12 0c-6.627 0-12 5.373-12 12s5.373 12 12 12 12-5.373 12-12-5.373-12-12-12zm-1.25 17.292l-4.5-4.364 1.857-1.858 2.643 2.506 5.643-5.784 1.857 1.857-7.5 7.643z"></path>
  </symbol>
  <symbol id="close" version="1.1" xml:space="preserve" xmlns="http://www.w3.org/2000/svg" xmlns:xlink="http://www.w3.org/1999/xlink" viewBox="0 0 512 512">
    <path d="M443.6,387.1L312.4,255.4l131.5-130c5.4-5.4,5.4-14.2,0-19.6l-37.4-37.6c-2.6-2.6-6.1-4-9.8-4c-3.7,0-7.2,1.5-9.8,4  L256,197.8L124.9,68.3c-2.6-2.6-6.1-4-9.8-4c-3.7,0-7.2,1.5-9.8,4L68,105.9c-5.4,5.4-5.4,14.2,0,19.6l131.5,130L68.4,387.1  c-2.6,2.6-4.1,6.1-4.1,9.8c0,3.7,1.4,7.2,4.1,9.8l37.4,37.6c2.7,2.7,6.2,4.1,9.8,4.1c3.5,0,7.1-1.3,9.8-4.1L256,313.1l130.7,131.1  c2.7,2.7,6.2,4.1,9.8,4.1c3.5,0,7.1-1.3,9.8-4.1l37.4-37.6c2.6-2.6,4.1-6.1,4.1-9.8C447.7,393.2,446.2,389.7,443.6,387.1z"></path>
  </symbol>
  <symbol version="1.1" xmlns="http://www.w3.org/2000/svg" xmlnsSketch="http://www.bohemiancoding.com/sketch/ns" xmlns:xlink="http://www.w3.org/1999/xlink" viewBox="0 0 14 18" id="delete">
    <title></title>
    <desc></desc>
    <defs></defs>
    <g fill="none" fill-rule="evenodd" id="Page-1" stroke="none" stroke-width="1">
      <g fill="#000000" id="Core" transform="translate(-299.000000, -129.000000)">
        <g id="delete" transform="translate(299.000000, 129.000000)">
          <path d="M1,16 C1,17.1 1.9,18 3,18 L11,18 C12.1,18 13,17.1 13,16 L13,4 L1,4 L1,16 L1,16 Z M14,1 L10.5,1 L9.5,0 L4.5,0 L3.5,1 L0,1 L0,3 L14,3 L14,1 L14,1 Z" id="Shape"></path>
        </g>
      </g>
    </g>
  </symbol>
  <symbol xmlns="http://www.w3.org/2000/svg" viewBox="0 0 24 24" id="error">
    <path d="M16.143 2l5.857 5.858v8.284l-5.857 5.858h-8.286l-5.857-5.858v-8.284l5.857-5.858h8.286zm.828-2h-9.942l-7.029 7.029v9.941l7.029 7.03h9.941l7.03-7.029v-9.942l-7.029-7.029zm-6.471 6h3l-1 8h-1l-1-8zm1.5 12.25c-.69 0-1.25-.56-1.25-1.25s.56-1.25 1.25-1.25 1.25.56 1.25 1.25-.56 1.25-1.25 1.25z"></path>
  </symbol>
  <symbol fill="none" stroke="currentColor" stroke-linecap="round" stroke-linejoin="round" stroke-width="2" xmlns="http://www.w3.org/2000/svg" viewBox="0 0 24 24" id="external">
    <path d="M18 13v6a2 2 0 0 1-2 2H5a2 2 0 0 1-2-2V8a2 2 0 0 1 2-2h6"></path>
    <polyline points="15 3 21 3 21 9"></polyline>
    <line x1="10" x2="21" y1="14" y2="3"></line>
  </symbol>
  <symbol xmlns="http://www.w3.org/2000/svg" viewBox="0 0 24 24" id="logout">
    <path d="M16 9v-4l8 7-8 7v-4h-8v-6h8zm-2 10v-.083c-1.178.685-2.542 1.083-4 1.083-4.411 0-8-3.589-8-8s3.589-8 8-8c1.458 0 2.822.398 4 1.083v-2.245c-1.226-.536-2.577-.838-4-.838-5.522 0-10 4.477-10 10s4.478 10 10 10c1.423 0 2.774-.302 4-.838v-2.162z"></path>
  </symbol>
  <symbol version="1.1" id="save" xmlns="http://www.w3.org/2000/svg" xmlns:xlink="http://www.w3.org/1999/xlink" x="0px" y="0px" xml:space="preserve" viewBox="0 0 440 440">
    <g>
      <path d="M420,78.072V60c0-16.5-13.5-30-30-30H240v40h150C400.925,70,411.167,72.949,420,78.072z"></path>
      <path d="M340.57,211.141c29.914,0,57.487,10.205,79.43,27.311V130c0-16.5-13.5-30-30-30H210V30c0-16.5-13.5-30-30-30H30
		C13.5,0,0,13.5,0,30v310.57h211.141C211.141,269.202,269.202,211.141,340.57,211.141z"></path>
      <path d="M340.57,241.141c-54.825,0-99.43,44.604-99.43,99.43S285.745,440,340.57,440c54.826,0,99.43-44.604,99.43-99.43
		S395.396,241.141,340.57,241.141z M402.071,355.57h-46.5v46.5h-30v-46.5h-46.5v-30h46.5v-46.5h30v46.5h46.5V355.57z"></path>
    </g>
    <g></g>
    <g></g>
    <g></g>
    <g></g>
    <g></g>
    <g></g>
    <g></g>
    <g></g>
    <g></g>
    <g></g>
    <g></g>
    <g></g>
    <g></g>
    <g></g>
    <g></g>
  </symbol>
  <symbol xmlns="http://www.w3.org/2000/svg" viewBox="0 0 24 24" id="search">
    <path d="M23.809 21.646l-6.205-6.205c1.167-1.605 1.857-3.579 1.857-5.711 0-5.365-4.365-9.73-9.731-9.73-5.365 0-9.73 4.365-9.73 9.73 0 5.366 4.365 9.73 9.73 9.73 2.034 0 3.923-.627 5.487-1.698l6.238 6.238 2.354-2.354zm-20.955-11.916c0-3.792 3.085-6.877 6.877-6.877s6.877 3.085 6.877 6.877-3.085 6.877-6.877 6.877c-3.793 0-6.877-3.085-6.877-6.877z"></path>
  </symbol>
  <symbol xmlns="http://www.w3.org/2000/svg" viewBox="0 0 24 24" id="star-empty">
    <g>
      <path d="M0 0h24v24H0z" fill="none"></path>
      <path d="M12 18.26l-7.053 3.948 1.575-7.928L.587 8.792l8.027-.952L12 .5l3.386 7.34 8.027.952-5.935 5.488 1.575 7.928L12 18.26zm0-2.292l4.247 2.377-.949-4.773 3.573-3.305-4.833-.573L12 5.275l-2.038 4.42-4.833.572 3.573 3.305-.949 4.773L12 15.968z"></path>
    </g>
  </symbol>
  <symbol xmlns="http://www.w3.org/2000/svg" viewBox="0 0 24 24" id="star-fill">
    <g>
      <path d="M0 0h24v24H0z" fill="none"></path>
      <path d="M12 18.26l-7.053 3.948 1.575-7.928L.587 8.792l8.027-.952L12 .5l3.386 7.34 8.027.952-5.935 5.488 1.575 7.928z"></path>
    </g>
  </symbol>
  <symbol xmlns="http://www.w3.org/2000/svg" viewBox="0 0 24 24" id="star-half">
    <g>
      <path d="M0 0h24v24H0z" fill="none"></path>
      <path d="M12 15.968l4.247 2.377-.949-4.773 3.573-3.305-4.833-.573L12 5.275v10.693zm0 2.292l-7.053 3.948 1.575-7.928L.587 8.792l8.027-.952L12 .5l3.386 7.34 8.027.952-5.935 5.488 1.575 7.928L12 18.26z"></path>
    </g>
  </symbol>
  <symbol xmlns="http://www.w3.org/2000/svg" viewBox="0 0 24 24" id="success">
    <path d="M12 2c5.514 0 10 4.486 10 10s-4.486 10-10 10-10-4.486-10-10 4.486-10 10-10zm0-2c-6.627 0-12 5.373-12 12s5.373 12 12 12 12-5.373 12-12-5.373-12-12-12zm6.25 8.891l-1.421-1.409-6.105 6.218-3.078-2.937-1.396 1.436 4.5 4.319 7.5-7.627z"></path>
  </symbol>
  <symbol xmlns="http://www.w3.org/2000/svg" viewBox="0 0 24 24" id="user-circle">
    <path d="M12 0c-6.627 0-12 5.373-12 12s5.373 12 12 12 12-5.373 12-12-5.373-12-12-12zm7.753 18.305c-.261-.586-.789-.991-1.871-1.241-2.293-.529-4.428-.993-3.393-2.945 3.145-5.942.833-9.119-2.489-9.119-3.388 0-5.644 3.299-2.489 9.119 1.066 1.964-1.148 2.427-3.393 2.945-1.084.25-1.608.658-1.867 1.246-1.405-1.723-2.251-3.919-2.251-6.31 0-5.514 4.486-10 10-10s10 4.486 10 10c0 2.389-.845 4.583-2.247 6.305z"></path>
  </symbol>
</svg>