<svg height="50pt" preserveAspectRatio="xMidYMid meet" viewBox="0 0 50 50" width="50pt" xmlns="http://www.w3.org/2000/svg"><g transform="matrix(.1 0 0 -.1 0 50)"><path d="m200 435c-34-35-41-48-32-57s17-6 36 12l25 23 3-99c2-80 6-99 18-99s16 19 18 99l3 99 25-23c19-18 27-21 36-12s2 22-32 57c-24 25-47 45-50 45s-26-20-50-45z"/><path d="m82 408c-33-36-62-109-62-158 0-50 29-122 63-158 83-89 251-89 334 0 34 36 63 108 63 158 0 74-68 195-99 175-16-9-13-31 6-46 24-21 53-89 53-129 0-19-9-53-19-75-70-151-272-151-342 0-31 68-18 148 33 202 11 12 18 29 15 37-9 22-20 20-45-6z"/></g></svg>